<?xml version="1.0" standalone="no"?>
<!DOCTYPE svg PUBLIC "-//W3C//DTD SVG 20010904//EN"
 "http://www.w3.org/TR/2001/REC-SVG-20010904/DTD/svg10.dtd">
<svg version="1.0" xmlns="http://www.w3.org/2000/svg"
 width="341.000000pt" height="213.000000pt" viewBox="0 0 341.000000 213.000000"
 preserveAspectRatio="xMidYMid meet">

<g transform="translate(0.000000,213.000000) scale(0.100000,-0.100000)"
fill="#000000" stroke="none">
<path d="M1217 1808 c-17 -267 -64 -326 -287 -366 l-105 -19 80 -7 c112 -10
193 -32 233 -63 41 -31 80 -112 89 -182 l6 -51 -137 0 c-106 0 -137 -3 -134
-12 7 -19 50 -25 170 -27 l107 -1 7 -52 c6 -44 9 -49 15 -28 4 14 7 40 8 58 1
27 4 31 19 23 9 -5 31 -15 49 -21 18 -7 34 -19 36 -28 3 -10 5 7 6 36 l1 52
-56 0 -56 0 7 57 c21 171 81 224 287 258 50 8 93 16 95 18 2 2 -39 7 -91 11
-243 17 -292 72 -330 371 l-12 90 -7 -117z"/>
<path d="M2395 1856 c-116 -52 -126 -209 -18 -273 101 -59 227 10 227 125 0
65 -28 111 -84 140 -50 25 -82 27 -125 8z m126 -39 c41 -28 59 -60 59 -111 0
-31 -7 -45 -39 -77 -32 -33 -45 -39 -80 -39 -80 0 -131 49 -131 125 0 101 107
159 191 102z"/>
<path d="M2390 1715 c0 -78 2 -85 20 -85 16 0 20 7 20 30 0 19 5 30 14 30 7 0
19 -13 26 -30 8 -18 20 -30 31 -30 23 0 24 9 2 39 -13 19 -14 28 -5 42 15 24
15 62 0 77 -7 7 -34 12 -60 12 l-48 0 0 -85z m85 30 c0 -13 -8 -21 -22 -23
-19 -3 -23 1 -23 23 0 22 4 26 23 23 14 -2 22 -10 22 -23z"/>
<path d="M2270 1351 c8 -5 35 -11 60 -14 126 -17 333 -96 411 -158 165 -130
31 -296 -321 -398 -252 -73 -523 -105 -875 -105 -424 0 -756 56 -955 160 -221
115 -209 254 33 373 56 27 138 60 182 72 110 29 109 29 102 35 -8 8 -228 -53
-337 -93 -304 -113 -407 -253 -286 -391 117 -133 443 -234 898 -278 216 -20
681 -15 888 10 355 44 650 123 814 218 59 34 131 101 152 140 20 38 18 107 -5
144 -64 105 -281 202 -589 264 -160 31 -199 36 -172 21z"/>
<path d="M1794 1089 c3 -17 6 -38 6 -46 0 -10 9 -7 31 9 28 21 45 23 187 28
139 5 202 16 202 35 0 3 -97 5 -216 5 l-216 0 6 -31z"/>
<path d="M1430 260 c0 -17 74 -30 165 -29 104 2 147 9 153 27 3 9 -33 12 -157
12 -95 0 -161 -4 -161 -10z"/>
</g>
</svg>
