<?xml version="1.0" standalone="no"?>
<!DOCTYPE svg PUBLIC "-//W3C//DTD SVG 20010904//EN"
 "http://www.w3.org/TR/2001/REC-SVG-20010904/DTD/svg10.dtd">
<svg version="1.0" xmlns="http://www.w3.org/2000/svg"
 width="559.000000pt" height="237.000000pt" viewBox="0 0 559.000000 237.000000"
 preserveAspectRatio="xMidYMid meet">

<g transform="translate(0.000000,237.000000) scale(0.100000,-0.100000)"
fill="#000000" stroke="none">
<path d="M5102 1690 c-130 -80 -74 -280 79 -280 82 0 152 69 152 150 0 114
-134 189 -231 130z m157 -29 c59 -42 65 -136 11 -189 -63 -63 -167 -46 -204
33 -21 44 -20 83 4 123 38 62 126 78 189 33z"/>
<path d="M5124 1637 c-9 -24 1 -162 11 -162 6 0 11 15 13 33 4 42 25 41 51 -3
23 -40 48 -48 36 -12 -10 28 -10 66 0 94 10 31 -25 63 -70 63 -21 0 -38 -6
-41 -13z m73 -28 c17 -17 4 -39 -23 -39 -17 0 -24 6 -24 18 0 32 25 43 47 21z"/>
<path d="M2229 1377 c-67 -36 -101 -90 -106 -174 -4 -58 -1 -74 19 -113 14
-25 44 -58 67 -75 36 -25 54 -30 115 -33 80 -4 117 8 169 57 88 81 85 225 -4
306 -51 46 -76 55 -153 55 -46 0 -74 -6 -107 -23z m148 -87 c66 -24 83 -125
29 -179 -21 -20 -36 -26 -72 -26 -39 0 -50 5 -70 30 -17 21 -24 43 -24 73 0
53 12 77 48 96 33 18 50 19 89 6z"/>
<path d="M3073 1380 c-64 -39 -83 -125 -38 -178 14 -17 50 -39 86 -52 62 -24
83 -45 58 -61 -23 -14 -65 -10 -118 11 -58 22 -74 13 -69 -41 4 -44 49 -70
132 -76 112 -9 166 35 166 135 0 63 -18 85 -95 116 -66 26 -87 48 -67 68 9 9
24 8 69 -6 l57 -18 18 22 c10 12 18 33 18 45 0 48 -155 73 -217 35z"/>
<path d="M3595 1386 c-39 -18 -80 -58 -102 -99 -23 -41 -23 -150 -1 -192 21
-40 76 -91 111 -104 35 -14 157 -14 191 -1 57 21 66 42 66 145 l0 95 -95 0
-95 0 0 -38 c0 -43 14 -62 47 -62 33 0 31 -38 -2 -46 -67 -17 -125 32 -125
106 0 92 61 127 164 95 62 -20 82 -16 95 17 12 30 -5 56 -50 80 -41 22 -159
24 -204 4z"/>
<path d="M4820 1389 c-31 -13 -87 -66 -105 -99 -54 -105 2 -259 108 -299 35
-14 157 -14 191 -1 57 21 66 42 66 145 l0 95 -95 0 -95 0 0 -38 c0 -43 14 -62
47 -62 27 0 33 -34 7 -44 -74 -28 -143 38 -131 125 10 79 66 104 161 74 63
-20 81 -16 98 21 11 25 10 29 -21 54 -18 15 -46 31 -63 34 -45 9 -140 6 -168
-5z"/>
<path d="M412 1348 l3 -43 50 -5 50 -5 3 -157 3 -158 43 0 c24 0 48 6 54 13 7
8 13 72 14 158 l3 144 45 3 c52 4 70 16 70 46 0 42 -16 46 -183 46 l-158 0 3
-42z"/>
<path d="M770 1185 l0 -205 43 0 c63 0 76 14 79 89 l3 64 55 -74 c60 -81 94
-97 131 -63 28 25 24 50 -17 106 l-36 49 21 23 c51 54 46 143 -10 190 -29 25
-36 26 -150 26 l-119 0 0 -205z m195 109 c22 -23 15 -55 -16 -73 -41 -23 -59
-9 -59 44 0 43 1 45 29 45 16 0 37 -7 46 -16z"/>
<path d="M1135 1374 c-13 -14 -15 -43 -13 -202 l3 -187 43 -3 c72 -5 72 -4 72
214 l0 194 -44 0 c-27 0 -51 -6 -61 -16z"/>
<path d="M1280 1185 l0 -205 41 0 c67 0 79 12 79 80 l0 60 55 0 c46 0 59 4 89
31 55 48 67 127 28 187 -27 42 -63 52 -182 52 l-110 0 0 -205z m194 109 c33
-32 5 -84 -46 -84 -27 0 -28 2 -28 50 0 49 1 50 29 50 16 0 37 -7 45 -16z"/>
<path d="M1772 1188 l3 -203 105 -3 c127 -4 174 8 195 48 24 46 20 116 -9 145
l-24 24 20 41 c24 48 19 97 -13 126 -18 16 -41 19 -150 22 l-129 4 2 -204z
m190 97 c14 -32 -4 -55 -43 -55 -27 0 -29 3 -29 40 0 38 2 40 30 40 23 0 33
-6 42 -25z m7 -157 c13 -32 -9 -62 -48 -66 -31 -3 -31 -3 -31 42 0 46 0 46 35
46 28 0 38 -5 44 -22z"/>
<path d="M2596 1374 c-30 -30 -19 -65 49 -154 l65 -84 0 -78 0 -78 44 0 c62 0
76 17 76 94 0 62 1 65 55 132 88 110 100 153 49 176 -34 16 -72 -5 -117 -63
-21 -27 -42 -49 -47 -49 -5 0 -25 23 -45 50 -52 71 -95 89 -129 54z"/>
<path d="M3962 1227 c-39 -89 -72 -174 -72 -188 0 -71 93 -78 115 -9 5 17 15
20 70 20 59 0 65 -2 77 -27 19 -38 41 -49 75 -37 56 19 53 45 -27 220 -39 87
-79 165 -88 172 -9 6 -30 12 -46 12 -30 0 -33 -4 -104 -163z m133 -54 c5 -20
3 -23 -19 -23 -24 0 -24 2 -14 31 11 32 21 29 33 -8z"/>
<path d="M4294 1377 c-2 -7 -3 -98 -2 -202 l3 -190 43 -3 c64 -5 72 7 72 102
l1 81 32 -36 c17 -20 55 -61 82 -92 41 -46 57 -57 81 -57 52 0 54 8 54 217 l0
193 -45 0 c-57 0 -74 -23 -74 -103 0 -33 -2 -61 -4 -63 -2 -3 -37 34 -76 81
-71 83 -73 85 -117 85 -27 0 -47 -5 -50 -13z"/>
</g>
</svg>
